name rise43.5482peak65.4966fall89.1036.mot
datacolumns 19
datarows 17
range 17.95659100000000 17.98325600000000
endheader
time	ground_force1_vx	ground_force1_vy	ground_force1_vz	ground_force1_px	ground_force1_py	ground_force1_pz	ground_force2_vx	ground_force2_vy	ground_force2_vz	ground_force2_px	ground_force2_py	ground_force2_pz	ground_torque1_x	ground_torque1_y	ground_torque1_z	ground_torque2_x	ground_torque2_y	ground_torque2_z	
17.95659100000000	-8.21696800000000	40.06423700000000	-6.99687400000000	0.29722900000000	0.00000000000000	0.07387600000000	-47.26160400000000	767.21877800000004	-48.31249900000000	0.10253600000000	0.00000000000000	-0.09084400000000	0.00000000000000	-4.10731600000000	0.00000000000000	0.00000000000000	-15.98976800000000	0.00000000000000	
17.95825700000000	-8.92230100000000	46.96827500000000	-7.79910800000000	0.30095600000000	0.00000000000000	0.07467500000000	-47.91366500000000	764.31309599999997	-47.91404800000000	0.10174200000000	0.00000000000000	-0.09071200000000	0.00000000000000	-4.63034100000000	0.00000000000000	0.00000000000000	-15.97705300000000	0.00000000000000	
17.95994000000000	-9.45007900000000	53.96408200000000	-8.50401100000000	0.30439900000000	0.00000000000000	0.07539100000000	-48.58243600000000	761.32653600000003	-47.49842900000000	0.10094100000000	0.00000000000000	-0.09057600000000	0.00000000000000	-5.10757600000000	0.00000000000000	0.00000000000000	-15.96691600000000	0.00000000000000	
17.96159200000000	-9.77859500000000	60.96272600000000	-9.09327000000000	0.30760600000000	0.00000000000000	0.07603700000000	-49.26692600000000	758.25631099999998	-47.06531100000000	0.10013400000000	0.00000000000000	-0.09043700000000	0.00000000000000	-5.52759100000000	0.00000000000000	0.00000000000000	-15.95914600000000	0.00000000000000	
17.96326200000000	-9.89602800000000	67.89722100000000	-9.55537500000000	0.31061600000000	0.00000000000000	0.07662200000000	-49.96603800000000	755.09951100000001	-46.61438500000000	0.09932100000000	0.00000000000000	-0.09029300000000	0.00000000000000	-5.88271700000000	0.00000000000000	0.00000000000000	-15.95351300000000	0.00000000000000	
17.96492300000000	-9.80017800000000	74.72460200000000	-9.88561700000000	0.31345900000000	0.00000000000000	0.07715400000000	-50.67857100000000	751.85311500000000	-46.14536400000000	0.09850400000000	0.00000000000000	-0.09014600000000	0.00000000000000	-6.16913400000000	0.00000000000000	0.00000000000000	-15.94977300000000	0.00000000000000	
17.96659800000000	-9.49746100000000	81.42567400000000	-10.08552900000000	0.31615900000000	0.00000000000000	0.07764000000000	-51.40322000000000	748.51399800000002	-45.65798700000000	0.09768400000000	0.00000000000000	-0.08999400000000	0.00000000000000	-6.38662400000000	0.00000000000000	0.00000000000000	-15.94766200000000	0.00000000000000	
17.96826200000000	-9.00136700000000	88.00285300000000	-10.16190700000000	0.31873500000000	0.00000000000000	0.07808500000000	-52.13857900000000	745.07894799999997	-45.15202400000000	0.09686300000000	0.00000000000000	-0.08983900000000	0.00000000000000	-6.53808000000000	0.00000000000000	0.00000000000000	-15.94690200000000	0.00000000000000	
17.96992800000000	-8.33059700000000	94.47658600000000	-10.12557300000000	0.32120500000000	0.00000000000000	0.07849400000000	-52.88314400000000	741.54467399999999	-44.62727400000000	0.09604100000000	0.00000000000000	-0.08967900000000	0.00000000000000	-6.62883300000000	0.00000000000000	0.00000000000000	-15.94720000000000	0.00000000000000	
17.97159800000000	-7.50709600000000	100.88091300000001	-9.99001100000000	0.32358100000000	0.00000000000000	0.07887000000000	-53.63531900000000	737.90782300000001	-44.08357200000000	0.09521900000000	0.00000000000000	-0.08951500000000	0.00000000000000	-6.66590300000000	0.00000000000000	0.00000000000000	-15.94824700000000	0.00000000000000	
17.97326000000000	-6.55415700000000	107.25868500000000	-9.77003500000000	0.32587500000000	0.00000000000000	0.07921700000000	-54.39341300000000	734.16499099999999	-43.52079100000000	0.09440000000000	0.00000000000000	-0.08934600000000	0.00000000000000	-6.65723300000000	0.00000000000000	0.00000000000000	-15.94972300000000	0.00000000000000	
17.97494700000000	-5.49473400000000	113.65687400000000	-9.48056300000000	0.32809400000000	0.00000000000000	0.07953900000000	-55.15565000000000	730.31273899999997	-42.93884000000000	0.09358400000000	0.00000000000000	-0.08917300000000	0.00000000000000	-6.61098600000000	0.00000000000000	0.00000000000000	-15.95129400000000	0.00000000000000	
17.97659600000000	-4.35007700000000	120.12235400000000	-9.13560200000000	0.33024600000000	0.00000000000000	0.07983600000000	-55.92017300000000	726.34760800000004	-42.33767400000000	0.09277200000000	0.00000000000000	-0.08899600000000	0.00000000000000	-6.53493000000000	0.00000000000000	0.00000000000000	-15.95261600000000	0.00000000000000	
17.97825600000000	-3.13871700000000	126.69838100000000	-8.74747200000000	0.33233700000000	0.00000000000000	0.08011100000000	-56.68504400000000	722.26613299999997	-41.71728800000000	0.09196700000000	0.00000000000000	-0.08881500000000	0.00000000000000	-6.43597000000000	0.00000000000000	0.00000000000000	-15.95333300000000	0.00000000000000	
17.97993100000000	-1.87584300000000	133.42194200000000	-8.32629100000000	0.33437100000000	0.00000000000000	0.08036700000000	-57.44825600000000	718.06486299999995	-41.07772700000000	0.09116900000000	0.00000000000000	-0.08862900000000	0.00000000000000	-6.31981700000000	0.00000000000000	0.00000000000000	-15.95308200000000	0.00000000000000	
17.98159800000000	-0.57302900000000	140.32200499999999	-7.87971900000000	0.33635200000000	0.00000000000000	0.08060400000000	-58.20773400000000	713.74037099999998	-40.41908400000000	0.09038000000000	0.00000000000000	-0.08843800000000	0.00000000000000	-6.19080600000000	0.00000000000000	0.00000000000000	-15.95149100000000	0.00000000000000	
17.98325600000000	0.76171100000000	147.41865400000000	-7.41292800000000	0.33828200000000	0.00000000000000	0.08082500000000	-58.96134300000000	709.28927799999997	-39.74150000000000	0.08960000000000	0.00000000000000	-0.08824300000000	0.00000000000000	-6.05185000000000	0.00000000000000	0.00000000000000	-15.94818200000000	0.00000000000000	
